<?xml version="1.0" standalone="no"?>
<!DOCTYPE svg PUBLIC "-//W3C//DTD SVG 20010904//EN"
 "http://www.w3.org/TR/2001/REC-SVG-20010904/DTD/svg10.dtd">
<svg version="1.0" xmlns="http://www.w3.org/2000/svg"
 width="5000.000000pt" height="2500.000000pt" viewBox="0 0 5000.000000 2500.000000"
 preserveAspectRatio="xMidYMid meet">
<metadata>
Created by potrace 1.15, written by Peter Selinger 2001-2017
</metadata>
<g transform="translate(0.000000,2500.000000) scale(0.100000,-0.100000)"
fill="#000000" stroke="none">
<path d="M16663 16074 c-264 -36 -438 -135 -512 -293 l-26 -56 -3 -790 c-2
-517 1 -807 8 -838 26 -121 121 -247 254 -335 39 -26 779 -432 1644 -902
l1572 -855 0 -587 0 -588 -955 0 -955 0 0 610 0 610 -785 0 -786 0 3 -807 3
-808 32 -68 c75 -159 235 -246 528 -289 132 -19 3788 -19 3920 0 259 38 413
110 498 234 68 100 67 80 67 988 0 890 1 875 -58 984 -38 72 -154 183 -248
237 -43 25 -775 423 -1626 884 l-1548 838 0 544 0 543 955 0 955 0 0 -565 0
-565 785 0 785 0 0 743 c0 826 2 803 -67 905 -83 123 -262 203 -516 231 -65 8
-693 11 -1959 10 -1529 -1 -1881 -4 -1965 -15z"/>
<path d="M22265 16075 c-120 -17 -172 -30 -264 -65 -127 -49 -226 -142 -268
-250 -17 -42 -18 -191 -21 -2645 -2 -1905 0 -2616 8 -2660 38 -200 210 -320
542 -376 96 -17 3778 -26 4024 -10 334 21 526 92 629 233 83 112 76 -143 73
2803 l-3 2620 -26 56 c-55 116 -160 199 -315 249 -193 62 -128 60 -2307 59
-1549 -1 -2002 -4 -2072 -14z m3155 -3000 l0 -2235 -1070 0 -1070 0 0 2235 0
2235 1070 0 1070 0 0 -2235z"/>
<path d="M27552 13078 l3 -3013 2058 -3 2057 -2 0 405 0 405 -1272 2 -1273 3
-3 2608 -2 2607 -785 0 -785 0 2 -3012z"/>
<path d="M31912 13258 l3 -2833 29 -60 c76 -155 243 -245 531 -287 134 -19
3955 -19 4099 0 285 39 454 128 528 280 l33 67 3 2832 2 2833 -785 0 -785 0 0
-2625 0 -2625 -1045 0 -1045 0 0 2625 0 2625 -785 0 -785 0 2 -2832z"/>
<path d="M38239 16075 c-130 -18 -208 -40 -304 -86 -99 -47 -167 -111 -209
-199 l-31 -65 -3 -794 c-3 -867 -3 -861 55 -961 40 -67 129 -157 208 -209 39
-25 778 -431 1642 -901 l1572 -855 1 -587 0 -588 -955 0 -955 0 0 610 0 610
-785 0 -785 0 0 -788 c0 -691 2 -795 16 -843 55 -188 226 -294 549 -341 72
-10 475 -13 1970 -13 1736 0 1888 1 1983 17 144 25 274 70 354 124 75 51 107
89 146 172 l27 57 3 825 c2 586 0 842 -8 885 -25 131 -119 261 -250 347 -30
19 -767 421 -1637 893 l-1583 858 0 543 0 544 955 0 955 0 0 -565 0 -565 785
0 786 0 -3 763 -3 762 -32 67 c-42 89 -105 149 -207 198 -96 46 -172 66 -315
86 -151 20 -3795 19 -3942 -1z"/>
<path d="M36320 8660 l0 -730 155 0 155 0 0 730 0 730 -155 0 -155 0 0 -730z"/>
<path d="M40610 9250 l0 -90 175 0 175 0 0 90 0 90 -175 0 -175 0 0 -90z"/>
<path d="M27640 9245 l0 -85 435 0 435 0 0 -615 0 -615 165 0 165 0 0 615 0
615 440 0 440 0 0 85 0 85 -1040 0 -1040 0 0 -85z"/>
<path d="M29945 9004 c-313 -47 -530 -165 -621 -339 -114 -217 -44 -458 172
-595 162 -102 356 -148 670 -157 223 -7 355 5 580 50 l159 32 3 98 c2 67 -1
97 -9 97 -6 0 -52 -14 -101 -30 -50 -17 -147 -42 -217 -57 -114 -25 -147 -27
-336 -28 -186 0 -220 3 -299 23 -212 53 -328 153 -352 300 l-7 42 678 0 677 0
-4 103 c-4 111 -27 179 -85 252 -62 79 -187 146 -346 186 -69 18 -119 22 -307
24 -124 2 -238 1 -255 -1z m412 -160 c164 -34 255 -110 277 -231 l6 -33 -525
0 c-289 0 -525 2 -525 5 0 22 37 87 68 119 68 70 160 116 282 141 94 19 324
18 417 -1z"/>
<path d="M31715 8999 c-100 -12 -253 -49 -334 -82 -255 -103 -387 -300 -353
-529 48 -323 397 -494 966 -475 164 6 228 15 489 73 l27 7 0 104 c0 96 -1 105
-17 98 -61 -27 -251 -87 -318 -102 -113 -25 -414 -25 -503 -1 -145 40 -242
109 -289 206 -25 51 -28 68 -28 157 0 87 3 107 27 157 33 71 94 130 173 168
107 51 181 64 360 64 184 0 300 -20 463 -80 53 -20 105 -38 115 -41 16 -5 18
3 15 98 l-3 104 -70 18 c-219 55 -529 79 -720 56z"/>
<path d="M33325 8991 c-107 -23 -209 -54 -283 -87 -30 -13 -58 -24 -63 -24 -5
0 -9 23 -9 50 l0 50 -160 0 -160 0 0 -525 0 -525 160 0 160 0 0 394 0 394 78
30 c44 17 128 43 188 59 97 25 126 28 264 28 184 0 251 -16 310 -75 61 -61 63
-76 67 -472 l5 -358 154 0 155 0 -3 393 c-3 387 -3 393 -27 444 -44 98 -152
177 -296 218 -95 27 -422 30 -540 6z"/>
<path d="M35005 8999 c-33 -5 -100 -20 -150 -34 -329 -94 -498 -324 -445 -606
36 -192 216 -348 476 -414 297 -76 681 -48 913 67 153 76 265 209 291 347 55
295 -123 522 -486 617 -90 24 -119 27 -319 30 -121 1 -247 -1 -280 -7z m462
-169 c98 -26 160 -59 214 -117 64 -68 89 -139 89 -253 0 -114 -25 -185 -89
-253 -94 -100 -218 -141 -431 -141 -108 0 -162 5 -209 18 -148 41 -249 121
-290 232 -31 80 -27 233 7 309 72 159 271 243 542 228 52 -3 127 -13 167 -23z"/>
<path d="M37447 8995 c-161 -28 -271 -71 -384 -151 -152 -108 -223 -276 -195
-460 22 -139 96 -249 226 -334 278 -181 839 -200 1163 -39 98 48 206 144 245
216 79 144 76 336 -5 472 -73 121 -236 226 -432 277 -90 24 -121 27 -320 30
-155 2 -243 -1 -298 -11z m480 -166 c183 -46 280 -144 303 -307 24 -174 -45
-319 -189 -391 -101 -51 -170 -65 -331 -65 -208 0 -318 34 -420 130 -74 69
-95 126 -95 259 0 134 17 187 84 258 50 54 107 87 195 112 129 38 316 39 453
4z"/>
<path d="M39242 8995 c-200 -36 -341 -103 -453 -214 -87 -87 -117 -144 -132
-248 -31 -209 71 -397 267 -493 146 -72 209 -83 461 -84 245 -1 310 10 485 78
l85 33 3 -75 c2 -62 -1 -83 -20 -121 -63 -127 -249 -180 -583 -168 -88 3 -218
16 -290 27 -71 12 -149 24 -172 27 l-43 6 0 -91 0 -91 33 -5 c131 -22 212 -28
433 -33 276 -6 397 3 551 42 237 60 372 186 402 376 7 38 11 259 11 542 l0
477 -151 0 c-140 0 -151 -1 -156 -19 -5 -19 -6 -19 -71 0 -132 37 -239 49
-416 48 -94 0 -204 -7 -244 -14z m606 -176 l112 -22 0 -288 0 -287 -57 -21
c-169 -61 -325 -85 -506 -79 -214 8 -321 59 -384 182 -38 73 -44 216 -13 298
46 123 182 211 375 242 78 12 363 -2 473 -25z"/>
<path d="M41720 9003 c-94 -7 -356 -34 -372 -39 -16 -5 -18 -18 -18 -96 l0
-91 33 6 c17 3 86 15 152 26 314 54 610 54 763 1 78 -27 132 -84 132 -139 l0
-39 -127 -6 c-593 -30 -756 -53 -919 -130 -137 -65 -193 -139 -194 -256 0 -54
5 -74 30 -116 92 -162 389 -249 728 -215 132 14 308 57 407 99 l70 31 3 -55 3
-54 159 0 160 0 0 373 c0 213 -5 391 -11 416 -45 198 -317 295 -809 289 -80
-1 -165 -3 -190 -5z m690 -667 l0 -145 -77 -29 c-185 -71 -345 -98 -518 -88
-223 12 -320 65 -320 174 0 63 25 97 99 134 110 56 351 87 734 96 l82 2 0
-144z"/>
<path d="M40620 8455 l0 -525 160 0 160 0 0 525 0 525 -160 0 -160 0 0 -525z"/>
</g>
</svg>
