<?xml version="1.0" encoding="UTF-8" standalone="no"?>
<svg
   xmlns:dc="http://purl.org/dc/elements/1.1/"
   xmlns:cc="http://creativecommons.org/ns#"
   xmlns:rdf="http://www.w3.org/1999/02/22-rdf-syntax-ns#"
   xmlns:svg="http://www.w3.org/2000/svg"
   xmlns="http://www.w3.org/2000/svg"
   xmlns:sodipodi="http://sodipodi.sourceforge.net/DTD/sodipodi-0.dtd"
   xmlns:inkscape="http://www.inkscape.org/namespaces/inkscape"
   version="1.0"
   width="5000.000000pt"
   height="2500.000000pt"
   viewBox="0 0 5000.000000 2500.000000"
   preserveAspectRatio="xMidYMid meet"
   id="svg3799"
   sodipodi:docname="solus.svg"
   inkscape:version="0.92.4 (5da689c313, 2019-01-14)">
  <defs
     id="defs3803" />
  <sodipodi:namedview
     pagecolor="#ffffff"
     bordercolor="#666666"
     borderopacity="1"
     objecttolerance="10"
     gridtolerance="10"
     guidetolerance="10"
     inkscape:pageopacity="0"
     inkscape:pageshadow="2"
     inkscape:window-width="1366"
     inkscape:window-height="705"
     id="namedview3801"
     showgrid="false"
     inkscape:zoom="0.1608"
     inkscape:cx="3333.3333"
     inkscape:cy="1666.6667"
     inkscape:window-x="-8"
     inkscape:window-y="-8"
     inkscape:window-maximized="1"
     inkscape:current-layer="svg3799" />
  <metadata
     id="metadata3763">
Created by potrace 1.15, written by Peter Selinger 2001-2017
<rdf:RDF>
  <cc:Work
     rdf:about="">
    <dc:format>image/svg+xml</dc:format>
    <dc:type
       rdf:resource="http://purl.org/dc/dcmitype/StillImage" />
  </cc:Work>
</rdf:RDF>
</metadata>
  <g
     transform="matrix(0.18530251,0,0,-0.18530251,-2951.0764,3358.1585)"
     id="g3797"
     style="fill:#000000;stroke:none">
    <path
       d="m 16663,16074 c -264,-36 -438,-135 -512,-293 l -26,-56 -3,-790 c -2,-517 1,-807 8,-838 26,-121 121,-247 254,-335 39,-26 779,-432 1644,-902 l 1572,-855 v -587 -588 h -955 -955 v 610 610 h -785 -786 l 3,-807 3,-808 32,-68 c 75,-159 235,-246 528,-289 132,-19 3788,-19 3920,0 259,38 413,110 498,234 68,100 67,80 67,988 0,890 1,875 -58,984 -38,72 -154,183 -248,237 -43,25 -775,423 -1626,884 l -1548,838 v 544 543 h 955 955 v -565 -565 h 785 785 v 743 c 0,826 2,803 -67,905 -83,123 -262,203 -516,231 -65,8 -693,11 -1959,10 -1529,-1 -1881,-4 -1965,-15 z"
       id="path3765"
       inkscape:connector-curvature="0" />
    <path
       d="m 22265,16075 c -120,-17 -172,-30 -264,-65 -127,-49 -226,-142 -268,-250 -17,-42 -18,-191 -21,-2645 -2,-1905 0,-2616 8,-2660 38,-200 210,-320 542,-376 96,-17 3778,-26 4024,-10 334,21 526,92 629,233 83,112 76,-143 73,2803 l -3,2620 -26,56 c -55,116 -160,199 -315,249 -193,62 -128,60 -2307,59 -1549,-1 -2002,-4 -2072,-14 z m 3155,-3000 v -2235 h -1070 -1070 v 2235 2235 h 1070 1070 z"
       id="path3767"
       inkscape:connector-curvature="0" />
    <path
       d="m 27552,13078 3,-3013 2058,-3 2057,-2 v 405 405 l -1272,2 -1273,3 -3,2608 -2,2607 h -785 -785 z"
       id="path3769"
       inkscape:connector-curvature="0" />
    <path
       d="m 31912,13258 3,-2833 29,-60 c 76,-155 243,-245 531,-287 134,-19 3955,-19 4099,0 285,39 454,128 528,280 l 33,67 3,2832 2,2833 h -785 -785 v -2625 -2625 h -1045 -1045 v 2625 2625 h -785 -785 z"
       id="path3771"
       inkscape:connector-curvature="0" />
    <path
       d="m 38239,16075 c -130,-18 -208,-40 -304,-86 -99,-47 -167,-111 -209,-199 l -31,-65 -3,-794 c -3,-867 -3,-861 55,-961 40,-67 129,-157 208,-209 39,-25 778,-431 1642,-901 l 1572,-855 1,-587 v -588 h -955 -955 v 610 610 h -785 -785 v -788 c 0,-691 2,-795 16,-843 55,-188 226,-294 549,-341 72,-10 475,-13 1970,-13 1736,0 1888,1 1983,17 144,25 274,70 354,124 75,51 107,89 146,172 l 27,57 3,825 c 2,586 0,842 -8,885 -25,131 -119,261 -250,347 -30,19 -767,421 -1637,893 l -1583,858 v 543 544 h 955 955 v -565 -565 h 785 786 l -3,763 -3,762 -32,67 c -42,89 -105,149 -207,198 -96,46 -172,66 -315,86 -151,20 -3795,19 -3942,-1 z"
       id="path3773"
       inkscape:connector-curvature="0" />
    <path
       d="m 36320,8660 v -730 h 155 155 v 730 730 h -155 -155 z"
       id="path3775"
       inkscape:connector-curvature="0" />
    <path
       d="m 40610,9250 v -90 h 175 175 v 90 90 h -175 -175 z"
       id="path3777"
       inkscape:connector-curvature="0" />
    <path
       d="m 27640,9245 v -85 h 435 435 v -615 -615 h 165 165 v 615 615 h 440 440 v 85 85 h -1040 -1040 z"
       id="path3779"
       inkscape:connector-curvature="0" />
    <path
       d="m 29945,9004 c -313,-47 -530,-165 -621,-339 -114,-217 -44,-458 172,-595 162,-102 356,-148 670,-157 223,-7 355,5 580,50 l 159,32 3,98 c 2,67 -1,97 -9,97 -6,0 -52,-14 -101,-30 -50,-17 -147,-42 -217,-57 -114,-25 -147,-27 -336,-28 -186,0 -220,3 -299,23 -212,53 -328,153 -352,300 l -7,42 h 678 677 l -4,103 c -4,111 -27,179 -85,252 -62,79 -187,146 -346,186 -69,18 -119,22 -307,24 -124,2 -238,1 -255,-1 z m 412,-160 c 164,-34 255,-110 277,-231 l 6,-33 h -525 c -289,0 -525,2 -525,5 0,22 37,87 68,119 68,70 160,116 282,141 94,19 324,18 417,-1 z"
       id="path3781"
       inkscape:connector-curvature="0" />
    <path
       d="m 31715,8999 c -100,-12 -253,-49 -334,-82 -255,-103 -387,-300 -353,-529 48,-323 397,-494 966,-475 164,6 228,15 489,73 l 27,7 v 104 c 0,96 -1,105 -17,98 -61,-27 -251,-87 -318,-102 -113,-25 -414,-25 -503,-1 -145,40 -242,109 -289,206 -25,51 -28,68 -28,157 0,87 3,107 27,157 33,71 94,130 173,168 107,51 181,64 360,64 184,0 300,-20 463,-80 53,-20 105,-38 115,-41 16,-5 18,3 15,98 l -3,104 -70,18 c -219,55 -529,79 -720,56 z"
       id="path3783"
       inkscape:connector-curvature="0" />
    <path
       d="m 33325,8991 c -107,-23 -209,-54 -283,-87 -30,-13 -58,-24 -63,-24 -5,0 -9,23 -9,50 v 50 h -160 -160 v -525 -525 h 160 160 v 394 394 l 78,30 c 44,17 128,43 188,59 97,25 126,28 264,28 184,0 251,-16 310,-75 61,-61 63,-76 67,-472 l 5,-358 h 154 155 l -3,393 c -3,387 -3,393 -27,444 -44,98 -152,177 -296,218 -95,27 -422,30 -540,6 z"
       id="path3785"
       inkscape:connector-curvature="0" />
    <path
       d="m 35005,8999 c -33,-5 -100,-20 -150,-34 -329,-94 -498,-324 -445,-606 36,-192 216,-348 476,-414 297,-76 681,-48 913,67 153,76 265,209 291,347 55,295 -123,522 -486,617 -90,24 -119,27 -319,30 -121,1 -247,-1 -280,-7 z m 462,-169 c 98,-26 160,-59 214,-117 64,-68 89,-139 89,-253 0,-114 -25,-185 -89,-253 -94,-100 -218,-141 -431,-141 -108,0 -162,5 -209,18 -148,41 -249,121 -290,232 -31,80 -27,233 7,309 72,159 271,243 542,228 52,-3 127,-13 167,-23 z"
       id="path3787"
       inkscape:connector-curvature="0" />
    <path
       d="m 37447,8995 c -161,-28 -271,-71 -384,-151 -152,-108 -223,-276 -195,-460 22,-139 96,-249 226,-334 278,-181 839,-200 1163,-39 98,48 206,144 245,216 79,144 76,336 -5,472 -73,121 -236,226 -432,277 -90,24 -121,27 -320,30 -155,2 -243,-1 -298,-11 z m 480,-166 c 183,-46 280,-144 303,-307 24,-174 -45,-319 -189,-391 -101,-51 -170,-65 -331,-65 -208,0 -318,34 -420,130 -74,69 -95,126 -95,259 0,134 17,187 84,258 50,54 107,87 195,112 129,38 316,39 453,4 z"
       id="path3789"
       inkscape:connector-curvature="0" />
    <path
       d="m 39242,8995 c -200,-36 -341,-103 -453,-214 -87,-87 -117,-144 -132,-248 -31,-209 71,-397 267,-493 146,-72 209,-83 461,-84 245,-1 310,10 485,78 l 85,33 3,-75 c 2,-62 -1,-83 -20,-121 -63,-127 -249,-180 -583,-168 -88,3 -218,16 -290,27 -71,12 -149,24 -172,27 l -43,6 v -91 -91 l 33,-5 c 131,-22 212,-28 433,-33 276,-6 397,3 551,42 237,60 372,186 402,376 7,38 11,259 11,542 v 477 h -151 c -140,0 -151,-1 -156,-19 -5,-19 -6,-19 -71,0 -132,37 -239,49 -416,48 -94,0 -204,-7 -244,-14 z m 606,-176 112,-22 v -288 -287 l -57,-21 c -169,-61 -325,-85 -506,-79 -214,8 -321,59 -384,182 -38,73 -44,216 -13,298 46,123 182,211 375,242 78,12 363,-2 473,-25 z"
       id="path3791"
       inkscape:connector-curvature="0" />
    <path
       d="m 41720,9003 c -94,-7 -356,-34 -372,-39 -16,-5 -18,-18 -18,-96 v -91 l 33,6 c 17,3 86,15 152,26 314,54 610,54 763,1 78,-27 132,-84 132,-139 v -39 l -127,-6 c -593,-30 -756,-53 -919,-130 -137,-65 -193,-139 -194,-256 0,-54 5,-74 30,-116 92,-162 389,-249 728,-215 132,14 308,57 407,99 l 70,31 3,-55 3,-54 h 159 160 v 373 c 0,213 -5,391 -11,416 -45,198 -317,295 -809,289 -80,-1 -165,-3 -190,-5 z m 690,-667 v -145 l -77,-29 c -185,-71 -345,-98 -518,-88 -223,12 -320,65 -320,174 0,63 25,97 99,134 110,56 351,87 734,96 l 82,2 z"
       id="path3793"
       inkscape:connector-curvature="0" />
    <path
       d="m 40620,8455 v -525 h 160 160 v 525 525 h -160 -160 z"
       id="path3795"
       inkscape:connector-curvature="0" />
  </g>
</svg>
